# Blender v2.93.1 OBJ File: ''
# www.blender.org
mtllib building3LOD.mtl
o building3.001_LOD1
v -5.000868 1.353029 6.879299
v -5.445154 1.423568 6.476660
v -4.806115 0.785659 6.341771
v -4.806115 0.785659 6.341771
v -5.445154 1.423568 6.476660
v -5.000868 1.353029 6.879299
v -1.101426 5.154575 3.607564
v -1.103743 4.793763 4.138412
v -1.944278 5.134083 3.597031
v -1.934722 4.807425 4.151817
v -5.376994 -1.968839 5.655333
v -5.188234 -2.744855 5.653373
v -5.472740 -1.131621 5.653350
v -5.472740 -1.131621 5.653350
v -5.188234 -2.744855 5.653373
v -5.376994 -1.968839 5.655333
v 3.542252 1.413168 5.498174
v 3.541862 1.413027 5.562976
v 3.529470 3.063475 6.273266
v 3.541862 1.413027 5.562976
v 3.542252 1.413168 5.498174
v 5.107042 1.403924 5.504102
v -1.103743 4.793763 4.138412
v -1.101426 5.154575 3.607564
v -1.934722 4.807425 4.151817
v -1.944278 5.134083 3.597031
v 5.107042 1.403924 5.504102
v 5.105579 3.063426 6.317990
v 3.541862 1.413027 5.562976
v 3.529470 3.063475 6.273266
v 3.529470 3.063475 6.273266
v 5.105579 3.063426 6.317990
v 3.542252 1.413168 5.498174
v 5.107042 1.403924 5.504102
v 1.956370 -3.859861 3.597031
v 1.946813 -3.533200 4.151817
v 1.113516 -3.880352 3.607565
v 1.115837 -3.519538 4.138409
v 1.946813 -3.533200 4.151817
v 1.956370 -3.859861 3.597031
v 1.115837 -3.519538 4.138409
v 1.113516 -3.880352 3.607565
v -4.196744 -3.859861 3.597031
v -4.206299 -3.533200 4.151817
v -5.039597 -3.880352 3.607565
v -5.037276 -3.519538 4.138409
v -4.206299 -3.533200 4.151817
v -4.196744 -3.859861 3.597031
v -5.037276 -3.519538 4.138409
v -5.039597 -3.880352 3.607565
v 6.356187 -2.669268 3.841027
v 6.401215 -1.742625 3.490853
v 6.398586 -1.527888 5.790471
v 6.404362 -1.539834 2.559863
v 6.398586 -1.527888 5.790471
v 6.401215 -1.742625 3.490853
v 6.356187 -2.669268 3.841027
v 6.393466 2.757364 3.888874
v 6.401698 3.656090 3.495491
v 6.341573 3.595644 5.066381
v 6.401698 3.656090 3.495491
v 6.407800 3.896276 5.783725
v 6.341573 3.595644 5.066381
v 6.402781 3.855224 2.558073
v 6.393466 2.757364 3.888874
v -6.396546 -2.667443 3.831379
v -6.341542 -1.798254 5.067007
v -6.401718 -1.738431 3.494930
v -6.402510 -1.539648 2.560410
v -6.396546 -2.667443 3.831379
v -6.401718 -1.738431 3.494930
v -6.341542 -1.798254 5.067007
v -6.403977 -1.497921 5.785716
v -6.394737 2.906912 4.154004
v -6.337535 3.594165 5.066720
v -6.401648 3.657546 3.498086
v -6.402774 3.852466 2.552885
v -6.394737 2.906912 4.154004
v -6.401648 3.657546 3.498086
v -6.337535 3.594165 5.066720
v -0.986246 4.797068 3.839849
v -1.909907 4.841101 3.489911
v -1.849687 4.781540 5.067937
v -1.909907 4.841101 3.489911
v -2.149924 4.842835 5.783728
v -1.849687 4.781540 5.067937
v -2.107882 4.843237 2.559904
v -0.986246 4.797068 3.839849
v 2.019219 4.797068 3.839849
v 1.095557 4.841101 3.489911
v 1.155777 4.781540 5.067937
v 1.095557 4.841101 3.489911
v 0.855540 4.842834 5.783728
v 1.155777 4.781540 5.067937
v 0.897582 4.843236 2.559904
v 2.019219 4.797068 3.839849
v 5.135510 4.832500 3.888875
v 4.236753 4.840622 3.495492
v 4.297199 4.780497 5.066380
v 4.236753 4.840622 3.495492
v 3.996566 4.846723 5.783725
v 4.297199 4.780497 5.066380
v 4.038799 4.841568 2.559339
v 5.135510 4.832500 3.888875
v -4.170854 4.832394 3.888874
v -5.069582 4.840627 3.495492
v -5.009135 4.780501 5.066381
v -5.069582 4.840627 3.495492
v -5.309769 4.846727 5.783725
v -5.009135 4.780501 5.066381
v -5.268716 4.841709 2.558074
v -4.170854 4.832394 3.888874
v 5.516050 -4.955217 2.329087
v 5.552258 -3.098189 0.101456
v 5.552258 -4.918958 2.333598
v 5.552258 -3.098189 0.101456
v 5.516050 -4.955217 2.329087
v 5.479842 -3.098189 0.101456
v 5.479842 -4.918958 2.333598
v 5.479842 -3.098189 0.101456
v 5.479842 -4.918958 2.333598
v 5.516050 -3.061934 0.105962
v 5.552258 -4.918958 2.333598
v 5.516050 -3.061934 0.105962
v 5.552258 -4.918958 2.333598
v 5.552258 -3.098189 0.101456
v 3.078258 -4.955219 2.329087
v 3.114465 -3.098189 0.101456
v 3.114465 -4.918960 2.333598
v 3.114465 -3.098189 0.101456
v 3.078258 -4.955219 2.329087
v 3.042050 -3.098189 0.101456
v 3.042050 -4.918960 2.333598
v 3.042050 -3.098189 0.101456
v 3.042050 -4.918960 2.333598
v 3.078257 -3.061934 0.105962
v 3.114465 -4.918960 2.333598
v 3.078257 -3.061934 0.105962
v 3.114465 -4.918960 2.333598
v 3.114465 -3.098189 0.101456
v 6.303091 -3.496619 5.784100
v -4.001950 -3.500980 5.787202
v 6.303091 -3.496618 2.594897
v -4.006274 -3.498215 2.593867
v -3.977167 4.445393 0.000337
v -6.057535 4.451596 0.004260
v -3.946369 4.381979 2.128799
v -6.052855 4.457562 2.630793
v -3.031451 4.451552 2.144340
v 6.051321 4.457307 2.630069
v -3.105062 4.430380 -0.000001
v 6.051375 4.457449 0.000001
v 6.050593 -3.218827 0.003267
v 6.040868 -1.222478 2.213555
v 6.049690 -3.217425 2.634418
v 6.048841 0.727788 1.846235
v 6.051375 4.457449 0.000001
v 6.051321 4.457307 2.630069
v -6.052855 4.457562 2.630793
v -6.027516 -0.308806 2.242820
v -6.047606 -3.224012 2.638885
v -6.057535 4.451596 0.004260
v -6.052467 -3.227724 -0.003680
v 2.993149 -5.155343 2.340414
v 2.993539 -5.155466 2.291307
v 5.618445 -5.166980 2.326583
v 2.993539 -5.155466 2.291307
v 2.993149 -5.155343 2.340414
v 2.993148 -3.270473 2.561935
v 2.993148 -3.270473 2.610612
v 2.993148 -3.270473 2.610612
v 2.993149 -5.155343 2.340414
v 5.613770 -3.261081 2.599479
v 5.618445 -5.166980 2.326583
v 5.618445 -5.166980 2.326583
v 2.993539 -5.155466 2.291307
v 5.613770 -3.261081 2.599479
v 2.993148 -3.270473 2.561935
v -5.937088 -3.261751 5.784100
v -5.937088 -3.261751 5.533817
v -5.937092 4.499384 5.784101
v -5.937092 4.499384 5.533818
v -5.937092 4.499384 5.784101
v -5.937092 4.499384 5.533818
v 5.943549 4.499391 5.784101
v 5.943549 4.499391 5.533818
v 5.943549 4.499391 5.784101
v 5.943549 4.499391 5.533818
v 5.943552 -3.261746 5.784100
v 5.943552 -3.261746 5.533817
v 5.943552 -3.261746 5.784100
v 5.943552 -3.261746 5.533817
v -5.937088 -3.261751 5.784100
v -5.937088 -3.261751 5.533817
v -6.296628 -3.496624 5.784100
v -5.937088 -3.261751 5.784100
v -6.296631 4.734258 5.784101
v -5.937092 4.499384 5.784101
v -6.296631 4.734258 5.784101
v -5.937092 4.499384 5.784101
v 6.303088 4.734262 5.784101
v 5.943549 4.499391 5.784101
v 6.303088 4.734262 5.784101
v 5.943549 4.499391 5.784101
v 6.303091 -3.496619 5.784100
v 5.943552 -3.261746 5.784100
v -5.937088 -3.261751 5.784100
v -6.296628 -3.496624 5.784100
v 5.943552 -3.261746 5.784100
v -5.316861 -3.508675 5.792002
v -4.001950 -3.500980 5.787202
v 6.303091 -3.496619 5.784100
v 6.303091 -3.496618 2.594897
v 6.303088 4.734263 2.594898
v 6.303091 -3.496619 5.784100
v 6.303088 4.734262 5.784101
v 5.943552 -3.261746 5.533817
v 5.943549 4.499391 5.533818
v -5.937088 -3.261751 5.533817
v -5.937092 4.499384 5.533818
v -6.296628 -3.496624 5.784100
v -6.296631 4.734258 5.784101
v -6.295738 -3.496101 2.594892
v -6.296607 4.734272 2.594898
v 6.303088 4.734263 2.594898
v 6.303091 -3.496618 2.594897
v -6.296607 4.734272 2.594898
v -4.006274 -3.498215 2.593867
v -5.243073 -3.585124 2.595178
v -6.295738 -3.496101 2.594892
v -6.296607 4.734272 2.594898
v -6.296631 4.734258 5.784101
v 6.303088 4.734263 2.594898
v 6.303088 4.734262 5.784101
v -6.295738 -3.496101 2.594892
v -5.243073 -3.585124 2.595178
v -6.296628 -3.496624 5.784100
v -5.316861 -3.508675 5.792002
v 5.465476 -3.177914 -0.003176
v 6.050593 -3.218827 0.003267
v 5.445384 -3.181549 2.338855
v 6.049690 -3.217425 2.634418
v 3.279985 -3.210866 2.350375
v 0.562054 -3.211756 -0.006818
v 3.280097 -3.189436 -0.010926
v 0.539543 -3.164144 2.173715
v -0.443781 -3.211830 2.183062
v -2.540870 -3.220926 2.211131
v -0.421173 -3.173085 -0.022809
v -6.047606 -3.224012 2.638885
v -2.540870 -3.220926 2.211131
v -6.052467 -3.227724 -0.003680
v -2.540870 -3.220926 2.211131
v -5.243073 -3.585124 2.595178
v -5.062006 -3.552518 3.499659
v -5.316861 -3.508675 5.792002
v -5.056331 -3.548891 5.047077
v -4.228157 -3.551841 5.047644
v -4.006274 -3.498215 2.593867
v -4.236850 -3.551320 3.486257
v -4.001950 -3.500980 5.787202
v -0.421173 -3.173085 -0.022809
v 0.562054 -3.211756 -0.006818
v -0.443781 -3.211830 2.183062
v 0.539543 -3.164144 2.173715
v -3.946369 4.381979 2.128799
v -3.031451 4.451552 2.144340
v -3.977167 4.445393 0.000337
v -3.105062 4.430380 -0.000001
v 3.280097 -3.189436 -0.010926
v 5.465476 -3.177914 -0.003176
v 3.279985 -3.210866 2.350375
v 5.445384 -3.181549 2.338855
v -1.160572 -3.599141 4.154004
v -1.847825 -3.541939 5.066720
v -1.911205 -3.606052 3.498083
v -4.236850 -3.551320 3.486257
v -4.228157 -3.551841 5.047644
v -5.062006 -3.552518 3.499659
v -5.056331 -3.548891 5.047077
v -2.106125 -3.607177 2.552884
v -1.160572 -3.599141 4.154004
v -1.911205 -3.606052 3.498083
v -1.847825 -3.541939 5.066720
v 2.025035 -3.600966 3.831380
v 1.155845 -3.545964 5.067008
v 1.096022 -3.606139 3.494931
v 0.897240 -3.606931 2.560410
v 2.025035 -3.600966 3.831380
v 1.096022 -3.606139 3.494931
v 1.155845 -3.545964 5.067008
v 0.855512 -3.608400 5.785715
v 5.166062 -3.600965 3.831379
v 4.296869 -3.545963 5.067008
v 4.237047 -3.606138 3.494931
v 4.038264 -3.606929 2.560410
v 5.166062 -3.600965 3.831379
v 4.237047 -3.606138 3.494931
v 3.996538 -3.608398 5.785715
v 4.296869 -3.545963 5.067008
vt 0.713867 0.318359
vt 0.713867 0.311523
vt 0.921875 0.318359
vt 0.420828 0.595022
vt 0.420828 0.579440
vt 0.832449 0.595022
vt 0.832449 0.579440
vt 0.204642 0.694269
vt 0.204642 0.678687
vt 0.834746 0.694269
vt 0.834746 0.678687
vt 0.832449 0.557487
vt 0.832449 0.573069
vt 0.420828 0.557487
vt 0.420828 0.573069
vt 0.834746 0.643991
vt 0.834746 0.659573
vt 0.204642 0.643991
vt 0.204642 0.659573
vt 0.343944 0.678311
vt 0.356400 0.656853
vt 0.780478 0.678311
vt 0.768022 0.656853
vt 0.861237 0.609187
vt 0.842168 0.623204
vt 0.192996 0.609187
vt 0.212064 0.623204
vt 0.673686 0.630642
vt 0.661229 0.652100
vt 0.237151 0.630642
vt 0.249608 0.652100
vt 0.853814 0.610860
vt 0.872883 0.624878
vt 0.223710 0.610860
vt 0.996302 0.713514
vt 0.345353 0.713514
vt 0.996302 0.995515
vt 0.345353 0.995515
vt 0.666164 0.716707
vt 0.666164 0.998507
vt 0.235734 0.716707
vt 0.235734 0.998507
vt 0.996302 0.996816
vt 0.345353 0.996816
vt 0.996302 0.714814
vt 0.345353 0.714814
vt 0.666100 0.715482
vt 0.666100 0.996004
vt 0.235115 0.715482
vt 0.313424 0.996004
vt 0.998864 0.714599
vt 0.998864 0.996601
vt 0.002399 0.714599
vt 0.002399 0.996601
vt 0.041136 0.354880
vt 0.000684 0.306233
vt 0.095639 0.289340
vt 0.003952 0.289719
vt 0.098428 0.306563
vt 0.058180 0.355071
vt 0.215947 0.002654
vt 0.215947 0.075087
vt 0.081659 0.002654
vt 0.081659 0.075087
vt 0.242906 0.379256
vt 0.001236 0.363319
vt 0.497907 0.363319
vt -0.000218 0.356794
vt 0.496454 0.356794
vt 0.329383 0.372780
vt 0.380877 0.014025
vt 0.389463 0.014025
vt 0.380877 0.198321
vt 0.358367 0.173293
vt 0.349781 0.173293
vt 0.349781 0.014025
vt 0.308846 0.001865
vt 0.308846 0.075148
vt 0.074489 0.001865
vt 0.074489 0.075148
vt 0.448499 0.003279
vt 0.448499 0.192362
vt 0.317757 0.003279
vt 0.317757 0.192362
vt 0.318539 0.192447
vt 0.318539 0.001005
vt 0.446868 0.192447
vt 0.446868 0.001005
vt 0.074489 0.075148
vt 0.074489 0.001865
vt 0.308846 0.075148
vt 0.308846 0.001865
vt 0.081659 0.075087
vt 0.081659 0.002654
vt 0.215947 0.075087
vt 0.215947 0.002654
vt 0.074489 0.075148
vt 0.074489 0.001865
vt 0.308846 0.075148
vt 0.308846 0.001865
vt 0.081659 0.075087
vt 0.081659 0.002654
vt 0.215947 0.075087
vt 0.215947 0.002654
vt 0.886522 0.001897
vt 0.774555 0.003630
vt 0.775602 0.214961
vt 0.707407 0.454681
vt 0.998706 0.456576
vt 0.789634 0.432729
vt 0.788471 0.351855
vt 0.886522 0.001897
vt 0.774555 0.003630
vt 0.775602 0.214961
vt 0.789634 0.432729
vt 0.998706 0.456576
vt 0.931584 0.431973
vt 0.707407 0.454681
vt 0.788471 0.351855
vt 0.886522 0.001897
vt 0.775602 0.214961
vt 0.774555 0.003630
vt 0.707407 0.454681
vt 0.788471 0.351855
vt 0.789634 0.432729
vt 0.931584 0.431973
vt 0.998706 0.456576
vt 0.886522 0.001897
vt 0.775602 0.214961
vt 0.774555 0.003630
vt 0.707407 0.454681
vt 0.788471 0.351855
vt 0.789634 0.432729
vt 0.931584 0.431973
vt 0.998026 0.001383
vt 0.887052 0.003119
vt 0.888090 0.214892
vt 0.788554 0.351474
vt 0.999254 0.327410
vt 0.932004 0.352237
vt 0.707399 0.329323
vt 0.788617 0.433085
vt 0.776451 0.002178
vt 0.887232 0.003909
vt 0.886196 0.215073
vt 0.789634 0.432729
vt 0.998706 0.456576
vt 0.931584 0.431973
vt 0.707407 0.454681
vt 0.788471 0.351855
vt 0.887735 0.001734
vt 0.999455 0.003480
vt 0.998410 0.216453
vt 0.788554 0.351474
vt 0.999254 0.327410
vt 0.932004 0.352237
vt 0.707399 0.329323
vt 0.788617 0.433085
vt 0.886522 0.001897
vt 0.774555 0.003630
vt 0.775602 0.214961
vt 0.789634 0.432729
vt 0.998706 0.456576
vt 0.931584 0.431973
vt 0.707407 0.454681
vt 0.788471 0.351855
vt 0.999484 0.318627
vt 0.713280 0.310076
vt 0.997801 0.310323
vt 0.997389 0.326807
vt 0.712693 0.326932
vt 0.999484 0.318627
vt 0.714875 0.318565
vt 0.997389 0.326807
vt 0.712693 0.326932
vt 0.999484 0.318627
vt 0.714875 0.318565
vt 0.713280 0.310076
vt 0.999484 0.318627
vt 0.714875 0.318565
vt 0.999484 0.318627
vt 0.713280 0.310076
vt 0.997801 0.310323
vt 0.997389 0.326807
vt 0.712693 0.326932
vt 0.999484 0.318627
vt 0.714875 0.318565
vt 0.997389 0.326807
vt 0.712693 0.326932
vt 0.999484 0.318627
vt 0.714875 0.318565
vt 0.713280 0.310076
vt 0.999484 0.318627
vt 0.714875 0.318565
vt 0.090570 0.997803
vt 0.996106 0.998404
vt 0.089717 0.715801
vt 0.996302 0.716402
vt 0.174191 0.459196
vt 0.002885 0.459196
vt 0.174363 0.663689
vt 0.002885 0.710895
vt 0.279725 0.663921
vt 0.997988 0.710895
vt 0.279358 0.459196
vt 0.997988 0.459196
vt 0.006803 0.460952
vt 0.170057 0.672302
vt 0.006803 0.712650
vt 0.331454 0.637804
vt 0.638097 0.460952
vt 0.638097 0.712650
vt 0.904500 0.712534
vt 0.515113 0.672217
vt 0.273206 0.712534
vt 0.904500 0.460836
vt 0.273206 0.460836
vt 0.713867 0.318359
vt 0.713867 0.311523
vt 0.999023 0.318359
vt 0.922852 0.310547
vt 0.930367 0.352524
vt 0.930367 0.429813
vt 0.790629 0.352524
vt 0.790629 0.429813
vt 0.930367 0.429800
vt 0.790629 0.429800
vt 0.930367 0.352511
vt 0.790629 0.352511
vt 0.820545 0.624878
vt 0.751347 0.624878
vt 0.204642 0.624878
vt 0.269536 0.996004
vt 0.235115 0.996004
vt 0.001654 0.997202
vt 0.090570 0.997803
vt 0.001654 0.715200
vt 0.089717 0.715801
vt 0.950087 0.458136
vt 0.997988 0.458136
vt 0.948542 0.682251
vt 0.997988 0.709834
vt 0.770845 0.682251
vt 0.567494 0.458136
vt 0.769300 0.458136
vt 0.567494 0.666338
vt 0.464788 0.666338
vt 0.291062 0.668686
vt 0.463696 0.458136
vt 0.002885 0.709834
vt 0.291062 0.668686
vt 0.002885 0.458136
vt 0.291062 0.668686
vt 0.707407 0.454681
vt 0.789634 0.432729
vt 0.998706 0.456576
vt 0.931584 0.431973
vt 0.931584 0.351073
vt 0.707407 0.329645
vt 0.788471 0.351855
vt 0.998706 0.329426
vt 0.501121 0.225446
vt 0.598978 0.225446
vt 0.502151 0.456442
vt 0.598978 0.456442
vt 0.704102 0.456055
vt 0.609375 0.456055
vt 0.704102 0.224609
vt 0.609375 0.224609
vt 0.459487 0.001432
vt 0.723910 0.001432
vt 0.461747 0.198177
vt 0.721650 0.198176
vt 0.998026 0.001383
vt 0.888090 0.214892
vt 0.887052 0.003119
vt 0.886522 0.001897
vt 0.887604 0.214961
vt 0.774555 0.003630
vt 0.775602 0.214961
vt 0.707399 0.329323
vt 0.788617 0.433085
vt 0.788554 0.351474
vt 0.932004 0.352237
vt 0.776451 0.002178
vt 0.886196 0.215073
vt 0.887232 0.003909
vt 0.707407 0.454681
vt 0.788471 0.351855
vt 0.789634 0.432729
vt 0.931584 0.431973
vt 0.998706 0.456576
vt 0.887735 0.001734
vt 0.998410 0.216453
vt 0.999455 0.003480
vt 0.707399 0.329323
vt 0.788617 0.433085
vt 0.788554 0.351474
vt 0.999254 0.327410
vt 0.932004 0.352237
vn -1.0000 0.0000 0.0000
vn 1.0000 0.0000 0.0000
vn 0.0000 -1.0000 0.0000
vn -0.0000 1.0000 0.0000
vn 0.0000 -0.0000 1.0000
vn -1.0000 -0.0000 0.0001
vn -1.0000 -0.0001 -0.0000
vn 0.0000 0.0000 -1.0000
vn 0.0001 0.0002 -1.0000
vn -0.5782 -0.7264 0.3715
vn -0.4852 -0.6195 0.6171
vn -0.6378 -0.5499 0.5393
vn 0.6394 0.5513 -0.5360
vn 0.4409 0.7504 -0.4925
vn 0.5793 0.7276 -0.3673
vn 0.0088 -0.8350 -0.5502
vn 0.2248 -0.8162 -0.5322
vn -0.1701 -0.9854 -0.0000
vn -0.1711 -0.9853 -0.0000
vn 0.9850 0.1724 -0.0000
vn 0.1298 -0.0164 0.9914
vn 0.9848 0.1737 0.0000
vn 0.0001 0.0000 1.0000
vn 0.1711 0.9852 0.0000
vn 0.0000 -0.4208 0.9072
vn 0.0000 -0.4226 0.9063
vn 0.0000 -0.4207 0.9072
vn -0.0000 0.4207 -0.9072
vn -0.0000 0.4170 -0.9089
vn 0.0000 0.4189 -0.9080
vn 0.0384 -0.9991 -0.0188
vn -0.1702 -0.9854 -0.0000
vn -0.0001 -0.0000 1.0000
vn 0.1701 0.9854 -0.0000
vn 0.1710 0.9853 -0.0000
vn -0.2248 0.8162 -0.5322
vn -0.0088 0.8350 -0.5502
vn 0.1715 0.9852 0.0000
vn 0.1694 0.9855 -0.0000
vn 0.6440 -0.5923 -0.4842
vn 0.6452 -0.5919 -0.4831
vn 0.6436 -0.5920 -0.4851
vn -0.6475 -0.5912 -0.4809
vn -0.6440 -0.5923 -0.4842
vn -0.6448 -0.5929 -0.4824
vn -0.6437 -0.5920 -0.4850
vn -0.6431 0.5938 0.4835
vn -0.6440 0.5923 0.4842
vn -0.6475 0.5912 0.4809
vn 0.6448 0.5929 0.4825
vn 0.6440 0.5923 0.4842
vn 0.6431 0.5938 0.4835
vn 0.6436 -0.5944 -0.4821
vn 0.6452 -0.5936 -0.4810
vn 0.6454 -0.5914 -0.4835
vn -0.6452 -0.5936 -0.4810
vn -0.6436 -0.5945 -0.4821
vn -0.6454 -0.5914 -0.4834
vn -0.6454 0.5913 0.4835
vn -0.6457 0.5918 0.4825
vn -0.6462 0.5921 0.4816
vn -0.6455 0.5912 0.4836
vn 0.6461 0.5921 0.4816
vn 0.6454 0.5913 0.4835
vn -0.0001 -1.0000 0.0000
vn 0.0000 -1.0000 -0.0001
vn 0.0001 -1.0000 -0.0000
vn -0.0000 -1.0000 0.0001
vn 1.0000 0.0001 0.0000
vn 0.0000 -0.1430 0.9897
vn -0.0000 -0.1408 0.9900
vn 0.0000 -0.1407 0.9901
vn 0.0000 0.1409 -0.9900
vn 0.0000 0.1410 -0.9900
vn 0.0000 0.1407 -0.9900
vn -0.0000 0.1407 -0.9901
vn 0.0000 0.0001 1.0000
vn -0.0001 -0.0001 1.0000
vn -0.0001 -0.0000 -1.0000
vn -0.0002 -0.0000 -1.0000
vn 0.0000 -1.0000 -0.0002
vn 0.0145 -0.9999 -0.0000
usemtl building_03.001
s off
f 170/1/1 169/2/1 168/3/1
f 179/4/2 180/5/2 181/6/2
f 182/7/2 181/6/2 180/5/2
f 183/8/3 184/9/3 185/10/3
f 186/11/3 185/10/3 184/9/3
f 187/12/1 188/13/1 189/14/1
f 190/15/1 189/14/1 188/13/1
f 191/16/4 192/17/4 193/18/4
f 194/19/4 193/18/4 192/17/4
f 195/20/5 196/21/5 197/22/5
f 198/23/5 197/22/5 196/21/5
f 199/24/5 200/25/5 201/26/5
f 202/27/5 201/26/5 200/25/5
f 203/28/5 204/29/5 205/30/5
f 206/31/5 205/30/5 204/29/5
f 207/32/5 208/33/5 209/34/5
f 213/35/2 214/36/2 215/37/2
f 216/38/2 215/37/2 214/36/2
f 217/39/5 218/40/5 219/41/5
f 220/42/5 219/41/5 218/40/5
f 221/43/6 222/44/6 223/45/6
f 224/46/7 223/45/7 222/44/7
f 225/47/8 226/48/8 227/49/8
f 226/48/9 228/50/9 227/49/9
f 231/51/4 232/52/4 233/53/4
f 234/54/4 233/53/4 232/52/4
s 1
f 1/55/10 2/56/11 3/57/12
f 4/58/13 5/59/14 6/60/15
f 7/61/16 8/62/17 9/63/18
f 10/64/19 9/63/18 8/62/17
f 11/65/5 12/66/5 13/67/5
f 14/68/20 15/69/21 16/70/22
f 17/71/1 18/72/1 19/73/1
f 20/74/3 21/75/3 22/76/3
f 23/77/23 24/78/24 25/79/5
f 26/80/4 25/79/5 24/78/24
f 27/81/25 28/82/26 29/83/27
f 30/84/26 29/83/27 28/82/26
f 31/85/28 32/86/29 33/87/30
f 34/88/28 33/87/30 32/86/29
f 35/89/31 36/90/5 37/91/32
f 38/92/33 37/91/32 36/90/5
f 39/93/34 40/94/35 41/95/36
f 42/96/37 41/95/36 40/94/35
f 43/97/3 44/98/5 45/99/3
f 46/100/33 45/99/3 44/98/5
f 47/101/38 48/102/39 49/103/36
f 50/104/37 49/103/36 48/102/39
f 51/105/2 52/106/2 53/107/2
f 54/108/2 55/109/2 56/110/2
f 54/108/2 56/110/2 57/111/2
f 58/112/2 59/113/2 60/114/2
f 61/115/2 62/116/2 63/117/2
f 64/118/2 62/116/2 61/115/2
f 64/118/2 61/115/2 65/119/2
f 66/120/1 67/121/1 68/122/1
f 69/123/1 70/124/1 71/125/1
f 71/125/1 72/126/1 73/127/1
f 69/123/1 71/125/1 73/127/1
f 74/128/1 75/129/1 76/130/1
f 77/131/1 78/132/1 79/133/1
f 77/131/1 79/133/1 80/134/1
f 81/135/4 82/136/4 83/137/4
f 84/138/4 85/139/4 86/140/4
f 87/141/4 85/139/4 84/138/4
f 87/141/4 84/138/4 88/142/4
f 89/143/4 90/144/4 91/145/4
f 92/146/4 93/147/4 94/148/4
f 95/149/4 93/147/4 92/146/4
f 95/149/4 92/146/4 96/150/4
f 97/151/4 98/152/4 99/153/4
f 100/154/4 101/155/4 102/156/4
f 103/157/4 101/155/4 100/154/4
f 103/157/4 100/154/4 104/158/4
f 105/159/4 106/160/4 107/161/4
f 108/162/4 109/163/4 110/164/4
f 111/165/4 109/163/4 108/162/4
f 111/165/4 108/162/4 112/166/4
f 113/167/40 114/168/41 115/169/42
f 116/170/43 117/171/44 118/172/45
f 119/173/46 118/172/45 117/171/44
f 120/174/47 121/175/48 122/176/49
f 123/177/48 122/176/49 121/175/48
f 124/178/50 125/179/51 126/180/52
f 127/181/53 128/182/54 129/183/55
f 130/184/56 131/185/57 132/186/56
f 133/187/58 132/186/56 131/185/57
f 134/188/59 135/189/60 136/190/61
f 137/191/62 136/190/61 135/189/60
f 138/192/63 139/193/64 140/194/51
f 141/195/65 142/196/66 143/197/67
f 144/198/68 143/197/67 142/196/66
f 145/199/4 146/200/4 147/201/4
f 146/200/4 148/202/4 147/201/4
f 147/201/4 148/202/4 149/203/4
f 149/203/4 148/202/4 150/204/4
f 151/205/4 149/203/4 150/204/4
f 152/206/4 151/205/4 150/204/4
f 153/207/2 154/208/2 155/209/2
f 156/210/2 154/208/2 153/207/2
f 157/211/2 156/210/2 153/207/2
f 158/212/69 156/210/2 157/211/2
f 154/208/2 156/210/2 158/212/69
f 158/212/69 155/209/2 154/208/2
f 159/213/1 160/214/1 161/215/1
f 162/216/1 160/214/1 159/213/1
f 163/217/1 160/214/1 162/216/1
f 161/215/1 160/214/1 163/217/1
f 164/218/3 165/219/3 166/220/3
f 167/221/1 168/3/1 169/2/1
f 171/222/70 172/223/71 173/224/70
f 174/225/72 173/224/70 172/223/71
f 175/226/73 176/227/74 177/228/75
f 178/229/76 177/228/75 176/227/74
f 208/33/5 210/230/5 209/34/77
f 209/34/77 210/230/5 211/231/5
f 212/232/78 209/34/77 211/231/5
f 227/49/8 228/50/8 229/233/79
f 230/234/80 227/49/8 229/233/79
f 235/235/81 236/236/3 237/237/3
f 238/238/3 237/237/3 236/236/3
f 239/239/3 240/240/3 241/241/3
f 240/240/3 242/242/3 241/241/3
f 242/242/3 243/243/3 241/241/3
f 244/244/3 245/245/3 246/246/3
f 245/245/3 243/243/3 246/246/3
f 246/246/3 243/243/3 247/247/3
f 247/247/3 243/243/3 242/242/3
f 248/248/3 249/249/3 247/247/3
f 250/250/3 249/249/3 251/251/3
f 249/249/3 250/250/3 252/252/82
f 242/242/3 250/250/3 253/253/3
f 254/254/3 255/255/3 256/256/3
f 255/255/3 257/257/3 256/256/3
f 257/257/3 258/258/3 256/256/3
f 254/254/3 259/259/3 255/255/3
f 255/255/3 259/259/3 260/260/3
f 259/259/3 261/261/3 260/260/3
f 260/260/3 261/261/3 258/258/3
f 258/258/3 261/261/3 256/256/3
f 247/247/3 242/242/3 253/253/3
f 262/262/3 263/263/3 264/264/3
f 265/265/3 264/264/3 263/263/3
f 266/266/4 267/267/4 268/268/4
f 269/269/4 268/268/4 267/267/4
f 270/270/3 271/271/3 272/272/3
f 273/273/3 272/272/3 271/271/3
f 274/274/3 275/275/3 276/276/3
f 277/277/3 278/278/3 279/279/66
f 280/280/3 279/279/66 278/278/3
f 281/281/3 282/282/3 283/283/3
f 281/281/3 283/283/3 284/284/3
f 285/285/3 286/286/3 287/287/3
f 288/288/3 289/289/3 290/290/3
f 290/290/3 291/291/3 292/292/3
f 288/288/3 290/290/3 292/292/3
f 293/293/3 294/294/3 295/295/3
f 296/296/3 297/297/3 298/298/3
f 296/296/3 298/298/3 299/299/3
f 298/298/3 300/300/3 299/299/3
