# Blender v2.78 (sub 0) OBJ File: ''
# www.blender.org
mtllib rubble1.mtl
o Rubble
v -102.975700 26.790972 173.802399
v -106.688400 41.244434 170.188797
v -103.065399 30.269089 183.700104
v -100.060204 20.522270 188.124207
v -103.065300 33.379734 165.704895
v -95.440231 18.180529 184.462494
v -98.254013 20.522274 165.704895
v -89.249481 16.274601 170.764496
v -97.828232 16.395130 190.106903
v -103.008202 45.751183 162.555893
v -114.774002 45.751175 170.188705
v -97.618652 16.678284 164.712494
v -107.867798 41.244431 179.156494
v -102.449402 29.359009 188.124207
v -103.477699 45.751171 191.512894
v -115.903603 45.751171 179.156403
vt 0.7986 0.1555
vt 1.3596 1.8317
vt -0.3409 0.5334
vt -0.9129 -0.6048
vt 1.8033 0.7850
vt -0.4575 -1.1515
vt 1.7123 -0.7804
vt 1.0844 -1.9412
vt -1.1884 -1.1022
vt 2.4925 1.9440
vt 1.2275 2.8907
vt 1.9085 -1.1380
vt 0.2325 1.9270
vt -0.8562 0.4115
vt -1.4574 2.1137
vt 0.3221 2.9796
vn 0.9077 0.4148 0.0632
vn 0.7630 0.5521 0.3363
vn 0.9482 0.3132 -0.0534
vn 0.7738 0.5936 0.2213
vn 0.9143 0.2674 0.3043
vn 0.8150 0.4815 0.3225
vn 0.7593 0.6190 -0.2007
vn 0.5185 0.8514 -0.0794
vn 0.7353 0.4916 0.4666
vn 0.7003 0.4136 0.5818
vn 0.4738 0.8482 0.2368
vn 0.5696 0.2925 -0.7681
vn 0.7540 0.6405 -0.1456
vn 0.9543 0.2576 -0.1516
vn 0.8171 0.3836 -0.4302
vn 0.4847 0.8642 -0.1349
usemtl Rubble_sm19
s 1
f 1/1/1 2/2/2 3/3/3
f 3/3/3 4/4/4 1/1/1
f 2/2/2 1/1/1 5/5/5
f 4/4/4 6/6/6 1/1/1
f 7/7/7 5/5/5 1/1/1
f 7/7/7 1/1/1 6/6/6
f 6/6/6 8/8/8 7/7/7
f 8/8/8 6/6/6 9/9/9
f 4/4/4 9/9/9 6/6/6
f 5/5/5 10/10/10 2/2/2
f 11/11/11 2/2/2 10/10/10
f 8/8/8 12/12/12 7/7/7
f 2/2/2 13/13/13 3/3/3
f 2/2/2 11/11/11 13/13/13
f 3/3/3 13/13/13 14/14/14
f 14/14/14 4/4/4 3/3/3
f 15/15/15 14/14/14 13/13/13
f 13/13/13 16/16/16 15/15/15
f 16/16/16 13/13/13 11/11/11
